<svg xmlns="http://www.w3.org/2000/svg" width="436" height="593" fill="none" stroke="#96a9c6" xmlns:v="https://vecta.io/nano"><path d="M341.639-24.675c-75.703-23.693-153.543-63.212-233.235 8.97S-21.39 119.709 10.964 201.522s164.422 30.855 202.794 103.977-45.94 139.485-9.591 204.563 64.3 106.787 181.115 65.409S491.327 428.807 580.16 367.153 765.104 213.2 633.206 48.506 417.341-.98 341.64-24.674z"/><path d="M351.105 13.249c-61.583-19.24-124.905-51.33-189.734 7.283S55.786 130.491 82.105 196.925s133.755 25.055 164.971 84.43-37.372 113.266-7.802 166.11 52.306 86.713 147.334 53.113 86.267-119.094 158.53-169.158 150.45-125.012 43.153-258.747-175.603-40.184-237.186-59.424z"/><path d="M368.812 38.417C318.85 22.72 267.478-3.465 214.883 44.36s-85.66 89.72-64.307 143.926 108.513 20.443 133.838 68.89-30.32 92.418-6.33 135.536 42.436 70.752 119.531 43.336 69.987-97.173 128.614-138.022 122.058-102.003 35.009-211.122-142.465-32.788-192.426-48.487z"/><path d="M387.316 69.184c-40.295-12.596-81.728-33.603-124.147 4.768s-69.087 71.984-51.865 115.475 87.518 16.402 107.943 55.273-24.453 74.148-5.105 108.743 34.225 56.767 96.404 34.77 56.446-77.965 103.73-110.739 98.442-81.839 28.236-169.388-114.901-26.307-155.196-38.902z"/><path d="M392.083 89.046c-32.91-10.295-66.749-27.467-101.393 3.897s-56.424 58.84-42.358 94.389 71.477 13.407 88.158 45.179-19.971 60.609-4.17 88.886 27.953 46.4 78.735 28.42 46.1-63.727 84.718-90.516 80.398-66.895 23.06-138.457-93.841-21.503-126.75-31.798z"/><path d="M401.225 103.406c-26.718-8.36-54.191-22.305-82.318 3.165s-45.81 47.78-34.39 76.649 58.03 10.887 71.574 36.688-16.214 49.217-3.385 72.18 22.694 37.68 63.923 23.08 37.428-51.75 68.78-73.505 65.275-54.323 18.723-112.435-76.188-17.462-102.907-25.822z"/></svg>