<svg xmlns="http://www.w3.org/2000/svg" width="124" height="330" fill="none" stroke="#9e96c6" xmlns:v="https://vecta.io/nano"><path d="M185.248 17.983c-40.947-12.815-83.05-34.188-126.155 4.85S-11.11 96.07 6.39 140.318s88.934 16.687 109.69 56.234-24.85 75.438-5.188 110.635 34.779 57.753 97.963 35.374 57.359-79.32 105.408-112.665 100.034-83.262 28.692-172.334-116.76-26.764-157.706-39.578z"/><path d="M190.037 40.695c-33.343-10.405-67.629-27.759-102.73 3.94s-57.17 59.464-42.918 95.392 72.42 13.55 89.322 45.66-20.235 61.253-4.224 89.831 28.321 46.894 79.774 28.723 46.708-64.405 85.835-91.48 81.46-67.606 23.365-139.93-95.08-21.73-128.424-32.136z"/><path d="M200.203 54.055c-26.936-8.47-54.632-22.596-82.988 3.207s-46.182 48.407-34.67 77.653 58.503 11.03 72.157 37.169-16.347 49.862-3.413 73.126 22.878 38.173 64.443 23.381 37.732-52.428 69.34-74.468 65.804-55.034 18.874-113.907-76.807-17.69-103.743-26.16z"/><path d="M210.233 71.814c-21.831-6.827-44.279-18.214-67.26 2.585s-37.43 39.017-28.1 62.59 47.416 8.89 58.482 29.96-13.248 40.19-2.766 58.942 18.543 30.769 52.23 18.846 30.581-42.259 56.198-60.024 53.334-44.359 15.298-91.813-62.251-14.259-84.082-21.086z"/></svg>