<svg xmlns="http://www.w3.org/2000/svg" width="168" height="165" fill="none" stroke="#96a9c6" xmlns:v="https://vecta.io/nano"><path d="M-20.97-256.987c-52.677-16.501-106.841-44.025-162.294 6.247s-90.316 94.31-67.803 151.29 114.411 21.488 141.113 72.415-31.968 97.145-6.674 142.469 44.742 74.373 126.027 45.554S83.189 58.843 145.002 15.904 273.694-91.317 181.914-206.02 31.707-240.485-20.97-256.987z"/><path d="M-13.955-230.22c-42.902-13.399-87.015-35.746-132.178 5.072s-73.556 76.574-55.22 122.838 93.18 17.449 114.926 58.798-26.035 78.877-5.435 115.677 36.44 60.387 102.64 36.988 60.098-82.937 110.44-117.8 104.81-87.059 30.062-180.19S28.947-216.823-13.955-230.22z"/><path d="M-1.61-212.607c-34.755-10.916-70.492-29.123-107.08 4.132s-59.59 62.386-44.735 100.078 75.487 14.216 93.105 47.903-21.092 64.263-4.404 94.245 29.52 49.197 83.152 30.134 48.686-67.57 89.47-95.974 84.91-70.927 24.355-146.803-99.106-22.8-133.862-33.715z"/><path d="M11.09-190.546c-28.022-8.762-56.835-23.376-86.334 3.317s-48.044 50.076-36.068 80.33 60.862 11.41 75.066 38.451-17.005 51.582-3.55 75.647 23.8 39.49 67.041 24.188 39.253-54.236 72.136-77.035 68.458-56.932 19.635-117.836-79.904-18.3-107.926-27.062z"/><path d="M14.12-176.738c-22.917-7.155-46.481-19.09-70.606 2.71s-39.292 40.895-29.498 65.602 49.775 9.319 61.391 31.402S-38.5-34.9-27.496-15.245-8.031 17.005 27.332 4.508s32.103-44.293 58.995-62.913 55.987-46.494 16.058-96.232-65.348-14.945-88.265-22.1z"/></svg>