<svg xmlns="http://www.w3.org/2000/svg" width="374" height="173" fill="none" stroke="#e4e4e4" xmlns:v="https://vecta.io/nano"><path d="M72.361 139.675c75.703 23.693 153.543 63.212 233.235-8.97S435.39-4.709 403.036-86.522s-164.422-30.855-202.794-103.977 45.94-139.485 9.591-204.563-64.3-106.787-181.115-65.409S-77.327-313.807-166.16-252.153-351.104-98.2-219.206 66.494-3.341 115.98 72.36 139.674z"/><path d="M62.895 101.751c61.583 19.24 124.905 51.33 189.734-7.283S358.214-15.491 331.895-81.925s-133.755-25.055-164.971-84.43 37.372-113.266 7.802-166.11-52.306-86.713-147.334-53.113-86.267 119.094-158.53 169.158-150.45 125.012-43.153 258.747S1.312 82.511 62.895 101.751z"/><path d="M45.188 76.583C95.15 92.28 146.522 118.465 199.117 70.64s85.66-89.72 64.307-143.926-108.513-20.443-133.838-68.89 30.32-92.418 6.33-135.536-42.436-70.752-119.531-43.336-69.987 97.173-128.614 138.022-122.058 102.003-35.009 211.122S-4.773 60.884 45.188 76.583z"/><path d="M26.684 45.816c40.295 12.596 81.728 33.603 124.147-4.768s69.087-71.984 51.865-115.475S115.178-90.829 94.753-129.7s24.453-74.148 5.105-108.743-34.225-56.767-96.404-34.77-56.446 77.965-103.73 110.739-98.442 81.839-28.236 169.388S-13.61 33.221 26.684 45.816z"/><path d="M21.917 25.954c32.91 10.295 66.749 27.467 101.393-3.897s56.424-58.84 42.358-94.389-71.477-13.407-88.158-45.179 19.971-60.609 4.17-88.886-27.953-46.4-78.735-28.42-46.1 63.727-84.718 90.516-80.398 66.895-23.06 138.457 93.841 21.503 126.75 31.798z"/><path d="M12.775 11.594c26.718 8.36 54.191 22.305 82.318-3.165s45.81-47.78 34.39-76.649-58.03-10.887-71.574-36.688 16.214-49.217 3.385-72.18-22.694-37.68-63.923-23.08-37.428 51.75-68.78 73.505-65.275 54.323-18.723 112.435S-13.944 3.234 12.775 11.594z"/></svg>