<svg xmlns="http://www.w3.org/2000/svg" width="528" height="231" fill="none" stroke="#e4e4e4" xmlns:v="https://vecta.io/nano"><path d="M186.361 197.675c75.703 23.693 153.543 63.212 233.235-8.97S549.39 53.291 517.036-28.522 352.614-59.377 314.242-132.499s45.94-139.485 9.591-204.563-64.3-106.787-181.115-65.409S36.673-255.807-52.16-194.153-237.104-40.2-105.206 124.494s215.865 49.487 291.567 73.18z"/><path d="M176.895 159.751c61.583 19.24 124.905 51.33 189.734-7.283S472.214 42.509 445.895-23.925 312.14-48.98 280.924-108.355s37.372-113.266 7.802-166.11-52.306-86.713-147.334-53.113S55.125-208.484-17.138-158.42-167.588-33.408-60.291 100.327s175.603 40.184 237.186 59.424z"/><path d="M159.188 134.583c49.962 15.698 101.334 41.882 153.929-5.943s85.66-89.72 64.307-143.926-108.513-20.443-133.838-68.89 30.32-92.418 6.33-135.536-42.436-70.752-119.531-43.336S60.398-165.875 1.77-125.026-120.287-23.023-33.238 86.096s142.465 32.788 192.426 48.487z"/><path d="M140.684 103.816c40.295 12.596 81.728 33.603 124.147-4.768s69.087-71.984 51.865-115.475S229.178-32.829 208.753-71.7s24.453-74.148 5.105-108.743-34.225-56.767-96.404-34.77-56.446 77.965-103.73 110.739-98.442 81.839-28.236 169.388 114.901 26.307 155.196 38.902z"/><path d="M135.917 83.954c32.91 10.295 66.749 27.467 101.393-3.897s56.424-58.84 42.358-94.389-71.477-13.407-88.158-45.179 19.971-60.609 4.17-88.886-27.953-46.4-78.735-28.42-46.1 63.727-84.718 90.516S-48.17-19.406 9.167 52.156s93.841 21.503 126.75 31.798z"/><path d="M126.775 69.594c26.718 8.36 54.191 22.305 82.318-3.165s45.81-47.78 34.39-76.649-58.03-10.887-71.574-36.688 16.214-49.217 3.385-72.18-22.694-37.68-63.923-23.08-37.428 51.75-68.78 73.505S-22.684-14.34 23.868 43.772s76.188 17.462 102.907 25.822z"/></svg>